<svg id="Capa_1" enable-background="new 0 0 512 512" height="512" viewBox="0 0 512 512" width="512" xmlns="http://www.w3.org/2000/svg"><g><g><g><g><g><g><g><g><g><circle cx="256" cy="256" fill="#7584f2" r="256"/></g></g></g></g></g></g></g></g><path d="m512 256c0-13.49-1.044-26.736-3.054-39.662l-106.503-106.504-319.504 262.148 137.579 137.579c11.597 1.608 23.442 2.439 35.482 2.439 141.385 0 256-114.615 256-256z" fill="#4855b7"/><g><path d="m82.939 140.018h346.122v231.963h-346.122z" fill="#ffce00"/></g><g><path d="m256 140.018h173.061v231.963h-173.061z" fill="#fdba12"/></g><g><path d="m82.939 371.982 173.061-143.368 173.061 143.368z" fill="#ffde55"/></g><g><path d="m256 228.614v.012 143.356h173.061z" fill="#ffce00"/></g><g><path d="m82.939 140.018 173.061 155.058 173.061-155.058z" fill="#fa0"/></g><g><path d="m429.061 140.018h-173.061v155.058z" fill="#ff9500"/></g><g><circle cx="353.604" cy="145.395" fill="#fe6a16" r="60.414"/></g><g><path d="m414.017 145.395c0-32.926-26.344-59.68-59.102-60.381v120.761c32.758-.7 59.102-27.454 59.102-60.38z" fill="#f24500"/></g><g><path d="m348.064 183.093v-53.159l-12.191 12.411-8.896-9.336 23.065-23.175h13.619v73.259z" fill="#fff"/></g><g><path d="m354.916 109.834h8.745v73.259h-8.745z" fill="#e9edf5"/></g></g></svg>